<svg width="42" height="44" viewBox="0 0 42 44" fill="none" xmlns="http://www.w3.org/2000/svg">
<path d="M20.9442 2.70815C20.9404 2.75089 20.9379 2.7974 20.9341 2.84517C20.9303 2.7974 20.9278 2.75089 20.924 2.70815C15.5459 -4.04895 0 4.16768 0 4.16768V44C0 44 16.5475 36.6256 20.9253 42.6172C20.929 42.582 20.9316 42.543 20.9353 42.5028C20.9391 42.543 20.9416 42.582 20.9454 42.6172C26.3248 36.3956 41.8707 43.961 41.8707 43.961V4.12871C41.8707 4.12871 26.3235 -4.12564 20.9442 2.70815ZM39.9457 40.8886C39.9457 40.8886 26.3235 34.09 20.9442 40.3128C20.9404 40.2776 20.9379 40.2387 20.9341 40.1984C20.9303 40.2387 20.9278 40.2776 20.924 40.3128C16.5462 34.3213 1.92245 40.9276 1.92245 40.9276V5.43487C1.92245 5.43487 15.5447 -2.0124 20.924 4.74345C20.9278 4.78619 20.9303 4.8327 20.9341 4.88048C20.9379 4.8327 20.9404 4.78619 20.9442 4.74345C26.3235 -2.09034 39.9457 5.3959 39.9457 5.3959V40.8886Z" fill="#F79F4F"/>
</svg>
