<svg width="88" height="92" viewBox="0 0 88 92" fill="none" xmlns="http://www.w3.org/2000/svg">
<path d="M43.5641 6.8901C43.5589 6.97685 43.551 7.07148 43.5458 7.16873C43.5406 7.07148 43.5327 6.97685 43.5275 6.8901C32.679 -6.80738 1.32593 9.84725 1.32593 9.84725V90.5996C1.32593 90.5996 34.6967 75.6483 43.5275 87.7975C43.5327 87.7266 43.5406 87.6477 43.5458 87.5662C43.551 87.6477 43.5589 87.7266 43.5641 87.7975C54.4126 75.183 85.7657 90.5234 85.7657 90.5234V9.77102C85.7657 9.77102 54.4126 -6.96247 43.5641 6.8901Z" fill="white"/>
<path d="M43.5641 5.66252C43.5563 5.75189 43.551 5.84915 43.5432 5.94904C43.5353 5.84915 43.5301 5.75189 43.5222 5.66252C32.3357 -8.46605 0 8.7143 0 8.7143V92.0006C0 92.0006 34.4189 76.5814 43.5248 89.1091C43.5327 89.0355 43.5379 88.9541 43.5458 88.8699C43.5537 88.9541 43.5589 89.0355 43.5668 89.1091C54.7559 76.1003 87.0916 91.9191 87.0916 91.9191V8.63281C87.0916 8.63281 54.7532 -8.62639 43.5641 5.66252ZM83.0876 85.4949C83.0876 85.4949 54.7532 71.2795 43.5641 84.291C43.5563 84.2174 43.551 84.1359 43.5432 84.0518C43.5353 84.1359 43.5301 84.2174 43.5222 84.291C34.4163 71.7632 3.99873 85.5763 3.99873 85.5763V11.3639C3.99873 11.3639 32.3331 -4.20776 43.5222 9.91818C43.5301 10.0076 43.5353 10.1048 43.5432 10.2047C43.551 10.1048 43.5563 10.0076 43.5641 9.91818C54.7532 -4.37073 83.0876 11.2824 83.0876 11.2824V85.4949Z" fill="url(#paint0_linear_3_31)"/>
<path d="M68.6492 38.2542C68.0151 38.0702 58.7179 34.8266 58.7179 34.8266L47.7489 44.7836L61.8388 47.9326C62.3708 48.0982 62.8188 48.411 63.1516 48.8132C63.943 49.6885 64.1212 51.0133 63.4844 52.091L63.4399 52.1699C63.3455 52.3933 63.2224 52.5983 63.0783 52.7823L53.3094 69.3713C52.7827 70.2676 51.6455 70.5857 50.7309 70.0941C49.8164 69.6026 49.4522 68.4775 49.9029 67.5418L57.8322 52.7377L41.3394 49.9277L28.7694 61.4119C28.2898 61.893 27.6478 62.3766 26.8486 62.6158L7.52055 68.2147V80.0354C7.52055 80.0354 35.4488 68.3382 43.5222 80.0354C43.5275 79.9697 43.5353 79.8961 43.5406 79.8198C43.5458 79.8961 43.5537 79.9697 43.5589 80.0354C51.6324 68.3382 79.5606 80.0354 79.5606 80.0354V31.8537L70.8713 37.9493C70.3237 38.3357 69.2834 38.4409 68.6492 38.2542Z" fill="url(#paint1_linear_3_31)"/>
<path d="M33.1769 47.4358C33.5201 46.7419 34.6495 44.5076 35.8995 43.4194C36.8061 42.6308 38.2342 41.5951 39.5025 40.9301C40.7708 40.2651 49.1089 29.7666 49.1089 29.7666L42.4636 27.5191L33.0223 33.4702C32.2021 33.896 31.1932 33.6043 30.7294 32.8026C30.263 32.0035 30.5067 30.9783 31.2797 30.471L41.6486 23.6814C42.2932 23.2582 43.0636 23.1978 43.7345 23.4396C43.7738 23.4448 48.9988 24.8406 50.3117 25.1876C51.0454 25.3821 53.4247 25.4242 54.1532 25.9104C55.3533 26.7148 60.2954 29.4748 61.1182 30.0058C62.2397 30.7286 62.2659 31.0808 62.8791 31.4515C64.0792 32.1743 69.6843 34.0222 69.6843 34.0222L79.5658 27.6322V14.1844C79.5658 14.1844 51.5564 -0.275382 43.5641 14.1844C43.5589 14.2659 43.551 14.3526 43.5458 14.442C43.5406 14.3526 43.5327 14.2632 43.5275 14.1844C35.5326 -0.275382 7.52579 14.1844 7.52579 14.1844V64.1246L24.4509 58.4364C24.4509 58.4364 32.8362 48.1298 33.1769 47.4358ZM59.5119 20.0855L61.1732 18.6398C63.1595 16.9102 66.1677 17.1231 67.8919 19.1156C69.6161 21.108 69.4039 24.1256 67.4176 25.8552L65.7563 27.301C63.77 29.0306 60.7618 28.8176 59.0376 26.8252C57.3134 24.8327 57.5256 21.8151 59.5119 20.0855Z" fill="url(#paint2_linear_3_31)"/>
<defs>
<linearGradient id="paint0_linear_3_31" x1="0" y1="46.0006" x2="87.0903" y2="46.0006" gradientUnits="userSpaceOnUse">
<stop stop-color="#D47B2B"/>
<stop offset="0.00581749" stop-color="#D67D2C"/>
<stop offset="0.0951" stop-color="#EE913D"/>
<stop offset="0.15" stop-color="#F79943"/>
<stop offset="0.36" stop-color="#F7CBA3"/>
<stop offset="0.3817" stop-color="#F6C79D"/>
<stop offset="0.4101" stop-color="#F3BD8D"/>
<stop offset="0.4422" stop-color="#EDAC72"/>
<stop offset="0.4768" stop-color="#E6954C"/>
<stop offset="0.5" stop-color="#E0832F"/>
<stop offset="0.5232" stop-color="#E6954C"/>
<stop offset="0.5578" stop-color="#EDAC72"/>
<stop offset="0.5899" stop-color="#F3BD8D"/>
<stop offset="0.6183" stop-color="#F6C79D"/>
<stop offset="0.64" stop-color="#F7CBA3"/>
<stop offset="0.85" stop-color="#F79943"/>
<stop offset="0.9049" stop-color="#EE923D"/>
<stop offset="0.9942" stop-color="#D67E2C"/>
<stop offset="1" stop-color="#D47C2B"/>
</linearGradient>
<linearGradient id="paint1_linear_3_31" x1="7.52482" y1="55.9438" x2="79.5655" y2="55.9438" gradientUnits="userSpaceOnUse">
<stop stop-color="#E0BB00"/>
<stop offset="0.0408" stop-color="#EBC712"/>
<stop offset="0.1084" stop-color="#FAD82A"/>
<stop offset="0.15" stop-color="#FFDE33"/>
<stop offset="0.36" stop-color="#F7EBAD"/>
<stop offset="0.3769" stop-color="#F6E9A7"/>
<stop offset="0.3991" stop-color="#F3E397"/>
<stop offset="0.4242" stop-color="#EED97C"/>
<stop offset="0.4514" stop-color="#E6CB56"/>
<stop offset="0.48" stop-color="#DDBA26"/>
<stop offset="0.5" stop-color="#D6AC00"/>
<stop offset="0.52" stop-color="#DDBA26"/>
<stop offset="0.5486" stop-color="#E6CB56"/>
<stop offset="0.5758" stop-color="#EED97C"/>
<stop offset="0.6009" stop-color="#F3E397"/>
<stop offset="0.6231" stop-color="#F6E9A7"/>
<stop offset="0.64" stop-color="#F7EBAD"/>
<stop offset="0.85" stop-color="#FFDE33"/>
<stop offset="0.8916" stop-color="#FAD82A"/>
<stop offset="0.9592" stop-color="#EBC712"/>
<stop offset="1" stop-color="#E0BB00"/>
</linearGradient>
<linearGradient id="paint2_linear_3_31" x1="7.52482" y1="35.9411" x2="79.5655" y2="35.9411" gradientUnits="userSpaceOnUse">
<stop stop-color="#D47B2B"/>
<stop offset="0.00581749" stop-color="#D67D2C"/>
<stop offset="0.0951" stop-color="#EE913D"/>
<stop offset="0.15" stop-color="#F79943"/>
<stop offset="0.36" stop-color="#F7CBA3"/>
<stop offset="0.3817" stop-color="#F6C79D"/>
<stop offset="0.4101" stop-color="#F3BD8D"/>
<stop offset="0.4422" stop-color="#EDAC72"/>
<stop offset="0.4768" stop-color="#E6954C"/>
<stop offset="0.5" stop-color="#E0832F"/>
<stop offset="0.5232" stop-color="#E6954C"/>
<stop offset="0.5578" stop-color="#EDAC72"/>
<stop offset="0.5899" stop-color="#F3BD8D"/>
<stop offset="0.6183" stop-color="#F6C79D"/>
<stop offset="0.64" stop-color="#F7CBA3"/>
<stop offset="0.85" stop-color="#F79943"/>
<stop offset="0.9049" stop-color="#EE923D"/>
<stop offset="0.9942" stop-color="#D67E2C"/>
<stop offset="1" stop-color="#D47C2B"/>
</linearGradient>
</defs>
</svg>
