<svg width="21" height="22" viewBox="0 0 21 22" fill="none" xmlns="http://www.w3.org/2000/svg">
<path d="M14.4481 12.618C16.4075 14.655 18.3628 16.6985 20.3323 18.727C20.9256 19.3373 21.198 20.1134 20.8388 20.8385C20.5825 21.3594 19.961 21.9378 19.4545 21.9931C18.8935 22.0547 18.1469 21.6954 17.707 21.2637C15.9878 19.5733 14.3331 17.8063 12.7087 16.0138C12.1679 15.4163 11.7684 15.3121 11.0157 15.6672C5.79338 18.1337 -0.0100763 14.1532 1.31369e-05 8.15902C0.00606681 4.34647 2.64143 0.961312 6.21108 0.174561C9.80899 -0.618569 13.4573 1.35044 14.9243 4.8738C15.9636 7.37227 15.8506 9.56454 14.4481 12.618ZM7.91217 2.60073C4.84497 2.57947 2.50018 4.98863 2.49211 8.16753C2.48606 11.323 4.88331 13.8853 7.83145 13.8768C10.7191 13.8683 13.1647 11.3039 13.195 8.25258C13.2253 5.17575 10.8361 2.62199 7.91217 2.60073Z" fill="#B9B9B9"/>
</svg>
